solid OpenSCAD_Model
  facet normal 1 0 0
    outer loop
      vertex 62 0 2.28553
      vertex 62 -0.517767 1.76777
      vertex 62 0 1.25
    endloop
  endfacet
  facet normal 1 -0 0
    outer loop
      vertex 62 50 32.5
      vertex 62 67 0
      vertex 62 67 69.5
    endloop
  endfacet
  facet normal 1 0 0
    outer loop
      vertex 62 67 0
      vertex 62 50 32.5
      vertex 62 55 2.5
    endloop
  endfacet
  facet normal 1 0 0
    outer loop
      vertex 62 67 69.5
      vertex 62 40 32.5
      vertex 62 50 32.5
    endloop
  endfacet
  facet normal 1 0 0
    outer loop
      vertex 62 40 32.5
      vertex 62 0 2.5
      vertex 62 35 2.5
    endloop
  endfacet
  facet normal 1 0 0
    outer loop
      vertex 62 0 2.5
      vertex 62 40 32.5
      vertex 62 67 69.5
    endloop
  endfacet
  facet normal 1 -0 0
    outer loop
      vertex 62 35 2.5
      vertex 62 67 0
      vertex 62 55 2.5
    endloop
  endfacet
  facet normal 1 0 0
    outer loop
      vertex 62 0 2.28553
      vertex 62 35 2.5
      vertex 62 0 2.5
    endloop
  endfacet
  facet normal 1 0 0
    outer loop
      vertex 62 0 1.25
      vertex 62 35 2.5
      vertex 62 0 2.28553
    endloop
  endfacet
  facet normal 1 0 0
    outer loop
      vertex 62 0 0
      vertex 62 35 2.5
      vertex 62 0 1.25
    endloop
  endfacet
  facet normal 1 0 0
    outer loop
      vertex 62 35 2.5
      vertex 62 0 0
      vertex 62 67 0
    endloop
  endfacet
  facet normal -0 0 1
    outer loop
      vertex 51.5 15.5 2.5
      vertex 59.5 3.75 2.5
      vertex 59.5 64.5 2.5
    endloop
  endfacet
  facet normal 0 0 1
    outer loop
      vertex 59.5 3.75 2.5
      vertex 51.5 15.5 2.5
      vertex 52 3.75 2.5
    endloop
  endfacet
  facet normal 0 0 1
    outer loop
      vertex 51.5 15.5 2.5
      vertex 59.5 64.5 2.5
      vertex 51.5 56.5 2.5
    endloop
  endfacet
  facet normal 0 0 1
    outer loop
      vertex 59.5 64.5 2.5
      vertex 49 56.5 2.5
      vertex 51.5 56.5 2.5
    endloop
  endfacet
  facet normal 0 0 1
    outer loop
      vertex 49 56.5 2.5
      vertex 44 54 2.5
      vertex 49 54 2.5
    endloop
  endfacet
  facet normal 0 0 1
    outer loop
      vertex 42 56.5 2.5
      vertex 49 56.5 2.5
      vertex 59.5 64.5 2.5
    endloop
  endfacet
  facet normal 0 0 1
    outer loop
      vertex 49 56.5 2.5
      vertex 42 56.5 2.5
      vertex 44 54 2.5
    endloop
  endfacet
  facet normal 0 0 1
    outer loop
      vertex 59.5 64.5 2.5
      vertex 20 56.5 2.5
      vertex 42 56.5 2.5
    endloop
  endfacet
  facet normal 0 0 1
    outer loop
      vertex 20 56.5 2.5
      vertex 18 54 2.5
      vertex 20 54 2.5
    endloop
  endfacet
  facet normal 0 0 1
    outer loop
      vertex 20 56.5 2.5
      vertex 13 56.5 2.5
      vertex 18 54 2.5
    endloop
  endfacet
  facet normal -0 0 1
    outer loop
      vertex 2.5 64.5 2.5
      vertex 20 56.5 2.5
      vertex 59.5 64.5 2.5
    endloop
  endfacet
  facet normal 0 0 1
    outer loop
      vertex 20 56.5 2.5
      vertex 2.5 64.5 2.5
      vertex 13 56.5 2.5
    endloop
  endfacet
  facet normal 0 0 1
    outer loop
      vertex 2.5 64.5 2.5
      vertex 10.5 15.5 2.5
      vertex 10.5 56.5 2.5
    endloop
  endfacet
  facet normal 0 0 1
    outer loop
      vertex 13 56.5 2.5
      vertex 2.5 64.5 2.5
      vertex 10.5 56.5 2.5
    endloop
  endfacet
  facet normal 0 0 1
    outer loop
      vertex 10.5 15.5 2.5
      vertex 2.5 64.5 2.5
      vertex 2.5 3.75 2.5
    endloop
  endfacet
  facet normal 0 0 1
    outer loop
      vertex 10.5 15.5 2.5
      vertex 2.5 3.75 2.5
      vertex 10 3.75 2.5
    endloop
  endfacet
  facet normal -0 0 1
    outer loop
      vertex 52 0.214466 2.5
      vertex 59.5 0 2.5
      vertex 59.5 0.214466 2.5
    endloop
  endfacet
  facet normal 0 0 1
    outer loop
      vertex 10 3.75 2.5
      vertex 52 3.75 2.5
      vertex 51.5 15.5 2.5
    endloop
  endfacet
  facet normal 0 0 1
    outer loop
      vertex 10 3.75 2.5
      vertex 51.5 15.5 2.5
      vertex 10.5 15.5 2.5
    endloop
  endfacet
  facet normal 0 0 1
    outer loop
      vertex 52 3.75 2.5
      vertex 10 3.75 2.5
      vertex 52 0.214466 2.5
    endloop
  endfacet
  facet normal 0 0 1
    outer loop
      vertex 10 0.214466 2.5
      vertex 52 0.214466 2.5
      vertex 10 3.75 2.5
    endloop
  endfacet
  facet normal -0 0 1
    outer loop
      vertex 10 0.214466 2.5
      vertex 59.5 0 2.5
      vertex 52 0.214466 2.5
    endloop
  endfacet
  facet normal 0 0 1
    outer loop
      vertex 2.5 0 2.5
      vertex 10 0.214466 2.5
      vertex 2.5 0.214466 2.5
    endloop
  endfacet
  facet normal 0 0 1
    outer loop
      vertex 10 0.214466 2.5
      vertex 2.5 0 2.5
      vertex 59.5 0 2.5
    endloop
  endfacet
  facet normal 0 0 1
    outer loop
      vertex 44 54 2.5
      vertex 42 56.5 2.5
      vertex 42 54 2.5
    endloop
  endfacet
  facet normal 0 0 1
    outer loop
      vertex 18 54 2.5
      vertex 13 56.5 2.5
      vertex 13 54 2.5
    endloop
  endfacet
  facet normal 0 0 -1
    outer loop
      vertex 17.8292 49 0
      vertex 18 49.2958 0
      vertex 18 49 0
    endloop
  endfacet
  facet normal 0 0 -1
    outer loop
      vertex 18 49.2958 0
      vertex 16.9511 50.691 0
      vertex 18 52.6952 0
    endloop
  endfacet
  facet normal -0 0 -1
    outer loop
      vertex 18 49.2958 0
      vertex 17.8292 49 0
      vertex 16.9511 50.691 0
    endloop
  endfacet
  facet normal 0 0 -1
    outer loop
      vertex 18 52.6952 0
      vertex 18.7082 50.5225 0
      vertex 18 49.2958 0
    endloop
  endfacet
  facet normal 0 0 -1
    outer loop
      vertex 18.7082 50.5225 0
      vertex 18 52.6952 0
      vertex 18.3816 52.375 0
    endloop
  endfacet
  facet normal 0 0 -1
    outer loop
      vertex 43.25 51 0
      vertex 45 51 0
      vertex 43.8934 49.2323 0
    endloop
  endfacet
  facet normal 0 -0 -1
    outer loop
      vertex 43.8934 52.7677 0
      vertex 45 51 0
      vertex 43.25 51 0
    endloop
  endfacet
  facet normal 0 0 -1
    outer loop
      vertex 45 51 0
      vertex 43.8934 52.7677 0
      vertex 44 52.8292 0
    endloop
  endfacet
  facet normal 0 0 -1
    outer loop
      vertex 43.2918 21.4775 0
      vertex 45.0489 21.309 0
      vertex 43.6184 19.625 0
    endloop
  endfacet
  facet normal 0 0 -1
    outer loop
      vertex 45.0489 21.309 0
      vertex 43.2918 21.4775 0
      vertex 44 22.7042 0
    endloop
  endfacet
  facet normal -0 0 -1
    outer loop
      vertex 45.4122 20.191 0
      vertex 43.6184 19.625 0
      vertex 45.0489 21.309 0
    endloop
  endfacet
  facet normal 0 0 -1
    outer loop
      vertex 45.0489 21.309 0
      vertex 44 22.7042 0
      vertex 44.1708 23 0
    endloop
  endfacet
  facet normal -0 0 -1
    outer loop
      vertex 44.1708 23 0
      vertex 44 22.7042 0
      vertex 44 23 0
    endloop
  endfacet
  facet normal 0 0 -1
    outer loop
      vertex 17 21 0
      vertex 18.75 21 0
      vertex 18.1066 19.2323 0
    endloop
  endfacet
  facet normal 0 0 -1
    outer loop
      vertex 17 21 0
      vertex 18.1066 19.2323 0
      vertex 18 19.1708 0
    endloop
  endfacet
  facet normal 0 0 -1
    outer loop
      vertex 18.75 21 0
      vertex 17 21 0
      vertex 18.1066 22.7677 0
    endloop
  endfacet
  facet normal 0 0 -1
    outer loop
      vertex 16 50 0
      vertex 17.7677 48.8934 0
      vertex 16 48.25 0
    endloop
  endfacet
  facet normal 0 0 -1
    outer loop
      vertex 17.7677 48.8934 0
      vertex 16 50 0
      vertex 16.9511 50.691 0
    endloop
  endfacet
  facet normal 0 0 -1
    outer loop
      vertex 14.2323 48.8934 0
      vertex 16 50 0
      vertex 16 48.25 0
    endloop
  endfacet
  facet normal 0 0 -1
    outer loop
      vertex 14.1708 49 0
      vertex 16 50 0
      vertex 14.2323 48.8934 0
    endloop
  endfacet
  facet normal -0 0 -1
    outer loop
      vertex 18 22.8292 0
      vertex 16.309 21.9511 0
      vertex 17.7042 23 0
    endloop
  endfacet
  facet normal -0 0 -1
    outer loop
      vertex 17.7042 23 0
      vertex 16.309 21.9511 0
      vertex 16.4775 23.7082 0
    endloop
  endfacet
  facet normal 0 0 -1
    outer loop
      vertex 14.625 23.3816 0
      vertex 16.309 21.9511 0
      vertex 15.191 21.5878 0
    endloop
  endfacet
  facet normal 0 0 -1
    outer loop
      vertex 16.309 21.9511 0
      vertex 14.625 23.3816 0
      vertex 16.4775 23.7082 0
    endloop
  endfacet
  facet normal 0 0 -1
    outer loop
      vertex 47.375 48.6184 0
      vertex 45.691 50.0489 0
      vertex 46.809 50.4122 0
    endloop
  endfacet
  facet normal 0 0 -1
    outer loop
      vertex 45.5225 48.2918 0
      vertex 45.691 50.0489 0
      vertex 47.375 48.6184 0
    endloop
  endfacet
  facet normal 0 0 -1
    outer loop
      vertex 44.2958 49 0
      vertex 45.691 50.0489 0
      vertex 45.5225 48.2918 0
    endloop
  endfacet
  facet normal 0 0 -1
    outer loop
      vertex 44 49.1708 0
      vertex 45.691 50.0489 0
      vertex 44.2958 49 0
    endloop
  endfacet
  facet normal 0 0 -1
    outer loop
      vertex 62 0 0
      vertex 49 23 0
      vertex 62 67 0
    endloop
  endfacet
  facet normal 0 0 -1
    outer loop
      vertex 46.5878 20.191 0
      vertex 49 23 0
      vertex 62 0 0
    endloop
  endfacet
  facet normal 0 0 -1
    outer loop
      vertex 46 22 0
      vertex 47.8292 23 0
      vertex 46.9511 21.309 0
    endloop
  endfacet
  facet normal 0 -0 -1
    outer loop
      vertex 46.9511 21.309 0
      vertex 49 23 0
      vertex 46.5878 20.191 0
    endloop
  endfacet
  facet normal -0 0 -1
    outer loop
      vertex 49 23 0
      vertex 46.9511 21.309 0
      vertex 47.8292 23 0
    endloop
  endfacet
  facet normal 0 0 -1
    outer loop
      vertex 44 18 0
      vertex 46.5878 20.191 0
      vertex 62 0 0
    endloop
  endfacet
  facet normal 0 0 -1
    outer loop
      vertex 44 19.3048 0
      vertex 45.4122 20.191 0
      vertex 44 18 0
    endloop
  endfacet
  facet normal 0 0 -1
    outer loop
      vertex 45.0489 21.309 0
      vertex 44.1708 23 0
      vertex 44.2323 23.1066 0
    endloop
  endfacet
  facet normal 0 0 -1
    outer loop
      vertex 43.6184 19.625 0
      vertex 45.4122 20.191 0
      vertex 44 19.3048 0
    endloop
  endfacet
  facet normal -0 0 -1
    outer loop
      vertex 46.5878 20.191 0
      vertex 44 18 0
      vertex 45.4122 20.191 0
    endloop
  endfacet
  facet normal 0 0 -1
    outer loop
      vertex 62 0 0
      vertex 18 18 0
      vertex 44 18 0
    endloop
  endfacet
  facet normal 0 0 -1
    outer loop
      vertex 16.309 20.0489 0
      vertex 18 19.1708 0
      vertex 18 18 0
    endloop
  endfacet
  facet normal -0 0 -1
    outer loop
      vertex 18.1066 22.7677 0
      vertex 17 21 0
      vertex 18 22.8292 0
    endloop
  endfacet
  facet normal 0 0 -1
    outer loop
      vertex 16.309 21.9511 0
      vertex 18 22.8292 0
      vertex 17 21 0
    endloop
  endfacet
  facet normal 0 0 -1
    outer loop
      vertex 18 22.8292 0
      vertex 17.7042 23 0
      vertex 18 23 0
    endloop
  endfacet
  facet normal 0 0 -1
    outer loop
      vertex 18 19.1708 0
      vertex 16.309 20.0489 0
      vertex 17 21 0
    endloop
  endfacet
  facet normal 0 0 -1
    outer loop
      vertex 18 18 0
      vertex 15.191 20.4122 0
      vertex 16.309 20.0489 0
    endloop
  endfacet
  facet normal 0 0 -1
    outer loop
      vertex 13 23 0
      vertex 15.191 21.5878 0
      vertex 15.191 20.4122 0
    endloop
  endfacet
  facet normal 0 0 -1
    outer loop
      vertex 15.191 21.5878 0
      vertex 14.3048 23 0
      vertex 14.625 23.3816 0
    endloop
  endfacet
  facet normal 0 0 -1
    outer loop
      vertex 15.191 21.5878 0
      vertex 13 23 0
      vertex 14.3048 23 0
    endloop
  endfacet
  facet normal 0 0 -1
    outer loop
      vertex 0 67 0
      vertex 13 23 0
      vertex 0 0 0
    endloop
  endfacet
  facet normal -0 0 -1
    outer loop
      vertex 15.191 20.4122 0
      vertex 0 0 0
      vertex 13 23 0
    endloop
  endfacet
  facet normal -0 0 -1
    outer loop
      vertex 18 18 0
      vertex 0 0 0
      vertex 15.191 20.4122 0
    endloop
  endfacet
  facet normal 0 0 -1
    outer loop
      vertex 0 0 0
      vertex 18 18 0
      vertex 62 0 0
    endloop
  endfacet
  facet normal 0 0 -1
    outer loop
      vertex 49 49 0
      vertex 62 67 0
      vertex 49 23 0
    endloop
  endfacet
  facet normal 0 0 -1
    outer loop
      vertex 46.809 50.4122 0
      vertex 49 49 0
      vertex 47.6952 49 0
    endloop
  endfacet
  facet normal 0 0 -1
    outer loop
      vertex 46.809 50.4122 0
      vertex 47.6952 49 0
      vertex 47.375 48.6184 0
    endloop
  endfacet
  facet normal 0 0 -1
    outer loop
      vertex 49 49 0
      vertex 46.809 50.4122 0
      vertex 46.809 51.5878 0
    endloop
  endfacet
  facet normal 0 0 -1
    outer loop
      vertex 49 49 0
      vertex 46.809 51.5878 0
      vertex 62 67 0
    endloop
  endfacet
  facet normal 0 0 -1
    outer loop
      vertex 44 54 0
      vertex 46.809 51.5878 0
      vertex 45.691 51.9511 0
    endloop
  endfacet
  facet normal 0 0 -1
    outer loop
      vertex 44 49.1708 0
      vertex 44.2958 49 0
      vertex 44 49 0
    endloop
  endfacet
  facet normal -0 0 -1
    outer loop
      vertex 45.691 50.0489 0
      vertex 44 49.1708 0
      vertex 45 51 0
    endloop
  endfacet
  facet normal 0 0 -1
    outer loop
      vertex 43.8934 49.2323 0
      vertex 45 51 0
      vertex 44 49.1708 0
    endloop
  endfacet
  facet normal 0 0 -1
    outer loop
      vertex 44 52.8292 0
      vertex 45.691 51.9511 0
      vertex 45 51 0
    endloop
  endfacet
  facet normal 0 0 -1
    outer loop
      vertex 44 54 0
      vertex 45.691 51.9511 0
      vertex 44 52.8292 0
    endloop
  endfacet
  facet normal 0 0 -1
    outer loop
      vertex 46.809 51.5878 0
      vertex 44 54 0
      vertex 62 67 0
    endloop
  endfacet
  facet normal 0 0 -1
    outer loop
      vertex 42 54 0
      vertex 62 67 0
      vertex 44 54 0
    endloop
  endfacet
  facet normal 0 0 -1
    outer loop
      vertex 20 54 0
      vertex 62 67 0
      vertex 42 54 0
    endloop
  endfacet
  facet normal 0 0 -1
    outer loop
      vertex 0 67 0
      vertex 20 54 0
      vertex 18 54 0
    endloop
  endfacet
  facet normal 0 0 -1
    outer loop
      vertex 16.9511 50.691 0
      vertex 17.8292 49 0
      vertex 17.7677 48.8934 0
    endloop
  endfacet
  facet normal 0 0 -1
    outer loop
      vertex 16.5878 51.809 0
      vertex 18 52.6952 0
      vertex 16.9511 50.691 0
    endloop
  endfacet
  facet normal -0 0 -1
    outer loop
      vertex 18 52.6952 0
      vertex 16.5878 51.809 0
      vertex 18 54 0
    endloop
  endfacet
  facet normal 0 0 -1
    outer loop
      vertex 15.4122 51.809 0
      vertex 18 54 0
      vertex 16.5878 51.809 0
    endloop
  endfacet
  facet normal -0 0 -1
    outer loop
      vertex 16 50 0
      vertex 14.1708 49 0
      vertex 15.0489 50.691 0
    endloop
  endfacet
  facet normal 0 0 -1
    outer loop
      vertex 13 49 0
      vertex 15.0489 50.691 0
      vertex 14.1708 49 0
    endloop
  endfacet
  facet normal -0 0 -1
    outer loop
      vertex 15.0489 50.691 0
      vertex 13 49 0
      vertex 15.4122 51.809 0
    endloop
  endfacet
  facet normal 0 0 -1
    outer loop
      vertex 20 54 0
      vertex 0 67 0
      vertex 62 67 0
    endloop
  endfacet
  facet normal 0 0 -1
    outer loop
      vertex 15.4122 51.809 0
      vertex 0 67 0
      vertex 18 54 0
    endloop
  endfacet
  facet normal 0 0 -1
    outer loop
      vertex 13 49 0
      vertex 0 67 0
      vertex 15.4122 51.809 0
    endloop
  endfacet
  facet normal 0 0 -1
    outer loop
      vertex 13 23 0
      vertex 0 67 0
      vertex 13 49 0
    endloop
  endfacet
  facet normal -0 0 -1
    outer loop
      vertex 47.8292 23 0
      vertex 46 22 0
      vertex 47.7677 23.1066 0
    endloop
  endfacet
  facet normal 0 0 -1
    outer loop
      vertex 46 22 0
      vertex 46 23.75 0
      vertex 47.7677 23.1066 0
    endloop
  endfacet
  facet normal 0 0 -1
    outer loop
      vertex 44.2323 23.1066 0
      vertex 46 22 0
      vertex 45.0489 21.309 0
    endloop
  endfacet
  facet normal 0 0 -1
    outer loop
      vertex 46 22 0
      vertex 44.2323 23.1066 0
      vertex 46 23.75 0
    endloop
  endfacet
  facet normal -1 0 0
    outer loop
      vertex 0 0 1.25
      vertex 0 -0.517767 1.76777
      vertex 0 0 2.28553
    endloop
  endfacet
  facet normal -1 0 0
    outer loop
      vertex 0 50 32.5
      vertex 0 67 0
      vertex 0 55 2.5
    endloop
  endfacet
  facet normal -1 0 0
    outer loop
      vertex 0 67 0
      vertex 0 35 2.5
      vertex 0 55 2.5
    endloop
  endfacet
  facet normal -1 0 -0
    outer loop
      vertex 0 35 2.5
      vertex 0 67 0
      vertex 0 0 0
    endloop
  endfacet
  facet normal -1 0 0
    outer loop
      vertex 0 67 0
      vertex 0 50 32.5
      vertex 0 67 69.5
    endloop
  endfacet
  facet normal -1 0 0
    outer loop
      vertex 0 40 32.5
      vertex 0 67 69.5
      vertex 0 50 32.5
    endloop
  endfacet
  facet normal -1 0 0
    outer loop
      vertex 0 0 1.25
      vertex 0 35 2.5
      vertex 0 0 0
    endloop
  endfacet
  facet normal -1 0 0
    outer loop
      vertex 0 0 2.28553
      vertex 0 35 2.5
      vertex 0 0 1.25
    endloop
  endfacet
  facet normal -1 0 0
    outer loop
      vertex 0 0 2.5
      vertex 0 35 2.5
      vertex 0 0 2.28553
    endloop
  endfacet
  facet normal -1 0 0
    outer loop
      vertex 0 35 2.5
      vertex 0 0 2.5
      vertex 0 40 32.5
    endloop
  endfacet
  facet normal -1 -0 0
    outer loop
      vertex 0 40 32.5
      vertex 0 0 2.5
      vertex 0 67 69.5
    endloop
  endfacet
  facet normal 0 1 0
    outer loop
      vertex 62 67 69.5
      vertex 41 67 39.5
      vertex 36 67 69.5
    endloop
  endfacet
  facet normal 0 1 0
    outer loop
      vertex 41 67 39.5
      vertex 62 67 0
      vertex 21 67 39.5
    endloop
  endfacet
  facet normal 0 1 -0
    outer loop
      vertex 62 67 0
      vertex 41 67 39.5
      vertex 62 67 69.5
    endloop
  endfacet
  facet normal 0 1 -0
    outer loop
      vertex 21 67 39.5
      vertex 0 67 69.5
      vertex 26 67 69.5
    endloop
  endfacet
  facet normal 0 1 0
    outer loop
      vertex 21 67 39.5
      vertex 0 67 0
      vertex 0 67 69.5
    endloop
  endfacet
  facet normal 0 1 0
    outer loop
      vertex 0 67 0
      vertex 21 67 39.5
      vertex 62 67 0
    endloop
  endfacet
  facet normal 0 -1 0
    outer loop
      vertex 0 0 0
      vertex 10 0 1.25
      vertex 0 0 1.25
    endloop
  endfacet
  facet normal 0 -1 -0
    outer loop
      vertex 10 0 1.25
      vertex 0 0 0
      vertex 52 0 1.25
    endloop
  endfacet
  facet normal 0 -1 0
    outer loop
      vertex 62 0 0
      vertex 52 0 1.25
      vertex 0 0 0
    endloop
  endfacet
  facet normal 0 -1 0
    outer loop
      vertex 52 0 1.25
      vertex 62 0 0
      vertex 62 0 1.25
    endloop
  endfacet
  facet normal 0 -1 0
    outer loop
      vertex 10 0 1.25
      vertex 52 0 2.28553
      vertex 10 0 2.28553
    endloop
  endfacet
  facet normal 0 -1 -0
    outer loop
      vertex 52 0 2.28553
      vertex 10 0 1.25
      vertex 52 0 1.25
    endloop
  endfacet
  facet normal 0 -1 0
    outer loop
      vertex 0 0 2.28553
      vertex 2.5 0 2.5
      vertex 0 0 2.5
    endloop
  endfacet
  facet normal 0 -1 0
    outer loop
      vertex 2.5 0 2.5
      vertex 10 0 2.28553
      vertex 59.5 0 2.5
    endloop
  endfacet
  facet normal 0 -1 -0
    outer loop
      vertex 2.5 0 2.5
      vertex 0 0 2.28553
      vertex 10 0 2.28553
    endloop
  endfacet
  facet normal 0 -1 0
    outer loop
      vertex 52 0 2.28553
      vertex 59.5 0 2.5
      vertex 10 0 2.28553
    endloop
  endfacet
  facet normal 0 -1 0
    outer loop
      vertex 62 0 2.28553
      vertex 59.5 0 2.5
      vertex 52 0 2.28553
    endloop
  endfacet
  facet normal 0 -1 0
    outer loop
      vertex 59.5 0 2.5
      vertex 62 0 2.28553
      vertex 62 0 2.5
    endloop
  endfacet
  facet normal -1 0 0
    outer loop
      vertex 49 54 2.5
      vertex 49 56.5 6
      vertex 49 56.5 2.5
    endloop
  endfacet
  facet normal -1 -0 0
    outer loop
      vertex 49 56.5 6
      vertex 49 54 2.5
      vertex 49 54 6
    endloop
  endfacet
  facet normal -1 0 0
    outer loop
      vertex 49 23 0
      vertex 49 49 6
      vertex 49 49 0
    endloop
  endfacet
  facet normal -1 -0 0
    outer loop
      vertex 49 49 6
      vertex 49 23 0
      vertex 49 23 6
    endloop
  endfacet
  facet normal 1 -0 0
    outer loop
      vertex 13 54 6
      vertex 13 56.5 2.5
      vertex 13 56.5 6
    endloop
  endfacet
  facet normal 1 0 0
    outer loop
      vertex 13 56.5 2.5
      vertex 13 54 6
      vertex 13 54 2.5
    endloop
  endfacet
  facet normal 1 -0 0
    outer loop
      vertex 13 23 6
      vertex 13 49 0
      vertex 13 49 6
    endloop
  endfacet
  facet normal 1 0 0
    outer loop
      vertex 13 49 0
      vertex 13 23 6
      vertex 13 23 0
    endloop
  endfacet
  facet normal 0 1 -0
    outer loop
      vertex 18 54 2.5
      vertex 13 54 6
      vertex 18 54 6
    endloop
  endfacet
  facet normal 0 1 0
    outer loop
      vertex 13 54 6
      vertex 18 54 2.5
      vertex 13 54 2.5
    endloop
  endfacet
  facet normal 0 -1 0
    outer loop
      vertex 18 54 0
      vertex 20 54 2.5
      vertex 18 54 2.5
    endloop
  endfacet
  facet normal 0 -1 -0
    outer loop
      vertex 20 54 2.5
      vertex 18 54 0
      vertex 20 54 0
    endloop
  endfacet
  facet normal 0 1 -0
    outer loop
      vertex 49 54 2.5
      vertex 44 54 6
      vertex 49 54 6
    endloop
  endfacet
  facet normal 0 1 0
    outer loop
      vertex 44 54 6
      vertex 49 54 2.5
      vertex 44 54 2.5
    endloop
  endfacet
  facet normal 0 -1 0
    outer loop
      vertex 42 54 0
      vertex 44 54 2.5
      vertex 42 54 2.5
    endloop
  endfacet
  facet normal 0 -1 -0
    outer loop
      vertex 44 54 2.5
      vertex 42 54 0
      vertex 44 54 0
    endloop
  endfacet
  facet normal 0 1 -0
    outer loop
      vertex 44 18 0
      vertex 18 18 6
      vertex 44 18 6
    endloop
  endfacet
  facet normal 0 1 0
    outer loop
      vertex 18 18 6
      vertex 44 18 0
      vertex 18 18 0
    endloop
  endfacet
  facet normal 1 0 0
    outer loop
      vertex 20 56.5 2.5
      vertex 20 54 2.5
      vertex 20 54 0
    endloop
  endfacet
  facet normal -1 0 0
    outer loop
      vertex 42 54 2.5
      vertex 42 56.5 2.5
      vertex 42 54 0
    endloop
  endfacet
  facet normal 0 -0.707107 0.707107
    outer loop
      vertex 20 54 0
      vertex 42 56.5 2.5
      vertex 20 56.5 2.5
    endloop
  endfacet
  facet normal 0 -0.707107 0.707107
    outer loop
      vertex 42 56.5 2.5
      vertex 20 54 0
      vertex 42 54 0
    endloop
  endfacet
  facet normal 1 -0 0
    outer loop
      vertex 51.5 15.5 8.5
      vertex 51.5 56.5 2.5
      vertex 51.5 56.5 8.5
    endloop
  endfacet
  facet normal 1 0 0
    outer loop
      vertex 51.5 56.5 2.5
      vertex 51.5 15.5 8.5
      vertex 51.5 15.5 2.5
    endloop
  endfacet
  facet normal -0 0 1
    outer loop
      vertex 10.5 56.5 8.5
      vertex 51.5 15.5 8.5
      vertex 51.5 56.5 8.5
    endloop
  endfacet
  facet normal 0 0 1
    outer loop
      vertex 51.5 15.5 8.5
      vertex 10.5 56.5 8.5
      vertex 10.5 15.5 8.5
    endloop
  endfacet
  facet normal -1 0 0
    outer loop
      vertex 10.5 15.5 2.5
      vertex 10.5 56.5 8.5
      vertex 10.5 56.5 2.5
    endloop
  endfacet
  facet normal -1 -0 0
    outer loop
      vertex 10.5 56.5 8.5
      vertex 10.5 15.5 2.5
      vertex 10.5 15.5 8.5
    endloop
  endfacet
  facet normal 0 1 0
    outer loop
      vertex 51.5 56.5 8.5
      vertex 49 56.5 6
      vertex 10.5 56.5 8.5
    endloop
  endfacet
  facet normal 0 1 -0
    outer loop
      vertex 51.5 56.5 2.5
      vertex 49 56.5 6
      vertex 51.5 56.5 8.5
    endloop
  endfacet
  facet normal 0 1 0
    outer loop
      vertex 49 56.5 6
      vertex 51.5 56.5 2.5
      vertex 49 56.5 2.5
    endloop
  endfacet
  facet normal 0 1 -0
    outer loop
      vertex 13 56.5 6
      vertex 10.5 56.5 8.5
      vertex 49 56.5 6
    endloop
  endfacet
  facet normal 0 1 0
    outer loop
      vertex 10.5 56.5 2.5
      vertex 13 56.5 6
      vertex 13 56.5 2.5
    endloop
  endfacet
  facet normal 0 1 0
    outer loop
      vertex 13 56.5 6
      vertex 10.5 56.5 2.5
      vertex 10.5 56.5 8.5
    endloop
  endfacet
  facet normal 0 -1 0
    outer loop
      vertex 10.5 15.5 2.5
      vertex 51.5 15.5 8.5
      vertex 10.5 15.5 8.5
    endloop
  endfacet
  facet normal 0 -1 -0
    outer loop
      vertex 51.5 15.5 8.5
      vertex 10.5 15.5 2.5
      vertex 51.5 15.5 2.5
    endloop
  endfacet
  facet normal 0 0 -1
    outer loop
      vertex 17.7677 48.8934 6
      vertex 18 49 6
      vertex 18 23 6
    endloop
  endfacet
  facet normal -0 0 -1
    outer loop
      vertex 18 49 6
      vertex 17.7677 48.8934 6
      vertex 17.8292 49 6
    endloop
  endfacet
  facet normal 0 0 -1
    outer loop
      vertex 16.4775 23.7082 6
      vertex 18 23 6
      vertex 17.7042 23 6
    endloop
  endfacet
  facet normal 0 0 -1
    outer loop
      vertex 18 23 6
      vertex 16.4775 23.7082 6
      vertex 17.7677 48.8934 6
    endloop
  endfacet
  facet normal 0 0 -1
    outer loop
      vertex 16.4775 23.7082 6
      vertex 16 48.25 6
      vertex 17.7677 48.8934 6
    endloop
  endfacet
  facet normal 0 0 -1
    outer loop
      vertex 14.625 23.3816 6
      vertex 16 48.25 6
      vertex 16.4775 23.7082 6
    endloop
  endfacet
  facet normal 0 0 -1
    outer loop
      vertex 13 23 6
      vertex 14.625 23.3816 6
      vertex 14.3048 23 6
    endloop
  endfacet
  facet normal 0 0 -1
    outer loop
      vertex 13 49 6
      vertex 14.625 23.3816 6
      vertex 13 23 6
    endloop
  endfacet
  facet normal 0 0 -1
    outer loop
      vertex 14.625 23.3816 6
      vertex 13 49 6
      vertex 16 48.25 6
    endloop
  endfacet
  facet normal 0 0 -1
    outer loop
      vertex 16 48.25 6
      vertex 13 49 6
      vertex 14.2323 48.8934 6
    endloop
  endfacet
  facet normal 0 0 -1
    outer loop
      vertex 14.2323 48.8934 6
      vertex 13 49 6
      vertex 14.1708 49 6
    endloop
  endfacet
  facet normal 0 0 -1
    outer loop
      vertex 44 23 6
      vertex 18 23 6
      vertex 44 49 6
    endloop
  endfacet
  facet normal 0 0 -1
    outer loop
      vertex 18 23 6
      vertex 18.1066 22.7677 6
      vertex 18 22.8292 6
    endloop
  endfacet
  facet normal -0 0 -1
    outer loop
      vertex 44 49 6
      vertex 18 23 6
      vertex 18 49 6
    endloop
  endfacet
  facet normal 0 0 -1
    outer loop
      vertex 44 49 6
      vertex 18 49 6
      vertex 18.7082 50.5225 6
    endloop
  endfacet
  facet normal 0 0 -1
    outer loop
      vertex 18.7082 50.5225 6
      vertex 18 49 6
      vertex 18 49.2958 6
    endloop
  endfacet
  facet normal 0 0 -1
    outer loop
      vertex 44 18 6
      vertex 43.6184 19.625 6
      vertex 44 19.3048 6
    endloop
  endfacet
  facet normal 0 0 -1
    outer loop
      vertex 44 49 6
      vertex 18.7082 50.5225 6
      vertex 43.8934 49.2323 6
    endloop
  endfacet
  facet normal 0 0 -1
    outer loop
      vertex 43.6184 19.625 6
      vertex 18.75 21 6
      vertex 43.2918 21.4775 6
    endloop
  endfacet
  facet normal 0 0 -1
    outer loop
      vertex 18 18 6
      vertex 43.6184 19.625 6
      vertex 44 18 6
    endloop
  endfacet
  facet normal -0 0 -1
    outer loop
      vertex 43.6184 19.625 6
      vertex 18 18 6
      vertex 18.75 21 6
    endloop
  endfacet
  facet normal 0 0 -1
    outer loop
      vertex 18.75 21 6
      vertex 18 18 6
      vertex 18.1066 19.2323 6
    endloop
  endfacet
  facet normal 0 0 -1
    outer loop
      vertex 18.1066 19.2323 6
      vertex 18 18 6
      vertex 18 19.1708 6
    endloop
  endfacet
  facet normal 0 0 -1
    outer loop
      vertex 43.2918 21.4775 6
      vertex 44 23 6
      vertex 44 22.7042 6
    endloop
  endfacet
  facet normal 0 0 -1
    outer loop
      vertex 18.1066 22.7677 6
      vertex 43.2918 21.4775 6
      vertex 18.75 21 6
    endloop
  endfacet
  facet normal 0 0 -1
    outer loop
      vertex 44 49 6
      vertex 43.8934 49.2323 6
      vertex 44 49.1708 6
    endloop
  endfacet
  facet normal 0 0 -1
    outer loop
      vertex 43.2918 21.4775 6
      vertex 18.1066 22.7677 6
      vertex 44 23 6
    endloop
  endfacet
  facet normal 0 0 -1
    outer loop
      vertex 18 23 6
      vertex 44 23 6
      vertex 18.1066 22.7677 6
    endloop
  endfacet
  facet normal 0 0 -1
    outer loop
      vertex 47.7677 23.1066 6
      vertex 49 23 6
      vertex 47.8292 23 6
    endloop
  endfacet
  facet normal 0 0 -1
    outer loop
      vertex 46 23.75 6
      vertex 49 23 6
      vertex 47.7677 23.1066 6
    endloop
  endfacet
  facet normal 0 -0 -1
    outer loop
      vertex 47.375 48.6184 6
      vertex 49 23 6
      vertex 46 23.75 6
    endloop
  endfacet
  facet normal -0 0 -1
    outer loop
      vertex 49 49 6
      vertex 47.375 48.6184 6
      vertex 47.6952 49 6
    endloop
  endfacet
  facet normal 0 0 -1
    outer loop
      vertex 49 23 6
      vertex 47.375 48.6184 6
      vertex 49 49 6
    endloop
  endfacet
  facet normal 0 0 -1
    outer loop
      vertex 46 23.75 6
      vertex 45.5225 48.2918 6
      vertex 47.375 48.6184 6
    endloop
  endfacet
  facet normal 0 0 -1
    outer loop
      vertex 44.2323 23.1066 6
      vertex 45.5225 48.2918 6
      vertex 46 23.75 6
    endloop
  endfacet
  facet normal -0 0 -1
    outer loop
      vertex 45.5225 48.2918 6
      vertex 44.2323 23.1066 6
      vertex 44 49 6
    endloop
  endfacet
  facet normal 0 0 -1
    outer loop
      vertex 44 23 6
      vertex 44.2323 23.1066 6
      vertex 44.1708 23 6
    endloop
  endfacet
  facet normal 0 0 -1
    outer loop
      vertex 44 49 6
      vertex 44.2323 23.1066 6
      vertex 44 23 6
    endloop
  endfacet
  facet normal 0 0 -1
    outer loop
      vertex 45.5225 48.2918 6
      vertex 44 49 6
      vertex 44.2958 49 6
    endloop
  endfacet
  facet normal -0 0 -1
    outer loop
      vertex 44 52.8292 6
      vertex 43.8934 52.7677 6
      vertex 44 54 6
    endloop
  endfacet
  facet normal 0 0 -1
    outer loop
      vertex 44 54 6
      vertex 49 56.5 6
      vertex 49 54 6
    endloop
  endfacet
  facet normal 0 0 -1
    outer loop
      vertex 43.25 51 6
      vertex 44 54 6
      vertex 43.8934 52.7677 6
    endloop
  endfacet
  facet normal 0 0 -1
    outer loop
      vertex 43.8934 49.2323 6
      vertex 18.7082 50.5225 6
      vertex 43.25 51 6
    endloop
  endfacet
  facet normal 0 0 -1
    outer loop
      vertex 18.3816 52.375 6
      vertex 43.25 51 6
      vertex 18.7082 50.5225 6
    endloop
  endfacet
  facet normal 0 0 -1
    outer loop
      vertex 43.25 51 6
      vertex 18.3816 52.375 6
      vertex 44 54 6
    endloop
  endfacet
  facet normal 0 0 -1
    outer loop
      vertex 18 54 6
      vertex 44 54 6
      vertex 18.3816 52.375 6
    endloop
  endfacet
  facet normal 0 0 -1
    outer loop
      vertex 18 54 6
      vertex 18.3816 52.375 6
      vertex 18 52.6952 6
    endloop
  endfacet
  facet normal 0 0 -1
    outer loop
      vertex 44 54 6
      vertex 18 54 6
      vertex 49 56.5 6
    endloop
  endfacet
  facet normal 0 0 -1
    outer loop
      vertex 13 56.5 6
      vertex 18 54 6
      vertex 13 54 6
    endloop
  endfacet
  facet normal 0 0 -1
    outer loop
      vertex 18 54 6
      vertex 13 56.5 6
      vertex 49 56.5 6
    endloop
  endfacet
  facet normal 0 0 -1
    outer loop
      vertex 16 50 6
      vertex 16.5878 51.809 6
      vertex 16.9511 50.691 6
    endloop
  endfacet
  facet normal 0 0 -1
    outer loop
      vertex 16 50 6
      vertex 15.4122 51.809 6
      vertex 16.5878 51.809 6
    endloop
  endfacet
  facet normal 0 -0 -1
    outer loop
      vertex 15.4122 51.809 6
      vertex 16 50 6
      vertex 15.0489 50.691 6
    endloop
  endfacet
  facet normal 0 0 -1
    outer loop
      vertex 45.691 50.0489 6
      vertex 46.809 51.5878 6
      vertex 46.809 50.4122 6
    endloop
  endfacet
  facet normal 0 0 -1
    outer loop
      vertex 45.691 50.0489 6
      vertex 45.691 51.9511 6
      vertex 46.809 51.5878 6
    endloop
  endfacet
  facet normal 0 -0 -1
    outer loop
      vertex 45.691 51.9511 6
      vertex 45.691 50.0489 6
      vertex 45 51 6
    endloop
  endfacet
  facet normal 0 0 -1
    outer loop
      vertex 46.5878 20.191 6
      vertex 46 22 6
      vertex 46.9511 21.309 6
    endloop
  endfacet
  facet normal 0 0 -1
    outer loop
      vertex 45.4122 20.191 6
      vertex 46 22 6
      vertex 46.5878 20.191 6
    endloop
  endfacet
  facet normal 0 0 -1
    outer loop
      vertex 46 22 6
      vertex 45.4122 20.191 6
      vertex 45.0489 21.309 6
    endloop
  endfacet
  facet normal 0 0 -1
    outer loop
      vertex 16.309 20.0489 6
      vertex 16.309 21.9511 6
      vertex 17 21 6
    endloop
  endfacet
  facet normal 0 0 -1
    outer loop
      vertex 15.191 20.4122 6
      vertex 16.309 21.9511 6
      vertex 16.309 20.0489 6
    endloop
  endfacet
  facet normal 0 0 -1
    outer loop
      vertex 16.309 21.9511 6
      vertex 15.191 20.4122 6
      vertex 15.191 21.5878 6
    endloop
  endfacet
  facet normal 0.499981 0.866036 -0
    outer loop
      vertex 17.7042 23 0
      vertex 16.4775 23.7082 6
      vertex 17.7042 23 6
    endloop
  endfacet
  facet normal 0.499981 0.866036 0
    outer loop
      vertex 16.4775 23.7082 6
      vertex 17.7042 23 0
      vertex 16.4775 23.7082 0
    endloop
  endfacet
  facet normal 0.499722 0.866186 -0
    outer loop
      vertex 18.1066 22.7677 0
      vertex 18 22.8292 6
      vertex 18.1066 22.7677 6
    endloop
  endfacet
  facet normal 0.499722 0.866186 0
    outer loop
      vertex 18 22.8292 6
      vertex 18.1066 22.7677 0
      vertex 18 22.8292 0
    endloop
  endfacet
  facet normal 0.939691 0.342025 0
    outer loop
      vertex 18.75 21 6
      vertex 18.1066 22.7677 0
      vertex 18.1066 22.7677 6
    endloop
  endfacet
  facet normal 0.939691 0.342025 0
    outer loop
      vertex 18.1066 22.7677 0
      vertex 18.75 21 6
      vertex 18.75 21 0
    endloop
  endfacet
  facet normal -0.173625 0.984812 0
    outer loop
      vertex 16.4775 23.7082 0
      vertex 14.625 23.3816 6
      vertex 16.4775 23.7082 6
    endloop
  endfacet
  facet normal -0.173625 0.984812 0
    outer loop
      vertex 14.625 23.3816 6
      vertex 16.4775 23.7082 0
      vertex 14.625 23.3816 0
    endloop
  endfacet
  facet normal -0.766045 0.642787 0
    outer loop
      vertex 14.3048 23 0
      vertex 14.625 23.3816 6
      vertex 14.625 23.3816 0
    endloop
  endfacet
  facet normal -0.766045 0.642787 0
    outer loop
      vertex 14.625 23.3816 6
      vertex 14.3048 23 0
      vertex 14.3048 23 6
    endloop
  endfacet
  facet normal 0.939691 -0.342025 0
    outer loop
      vertex 18.1066 19.2323 6
      vertex 18.75 21 0
      vertex 18.75 21 6
    endloop
  endfacet
  facet normal 0.939691 -0.342025 0
    outer loop
      vertex 18.75 21 0
      vertex 18.1066 19.2323 6
      vertex 18.1066 19.2323 0
    endloop
  endfacet
  facet normal 0.499722 -0.866186 0
    outer loop
      vertex 18 19.1708 0
      vertex 18.1066 19.2323 6
      vertex 18 19.1708 6
    endloop
  endfacet
  facet normal 0.499722 -0.866186 0
    outer loop
      vertex 18.1066 19.2323 6
      vertex 18 19.1708 0
      vertex 18.1066 19.2323 0
    endloop
  endfacet
  facet normal 1 -0 0
    outer loop
      vertex 18 18 6
      vertex 18 19.1708 0
      vertex 18 19.1708 6
    endloop
  endfacet
  facet normal 1 0 0
    outer loop
      vertex 18 19.1708 0
      vertex 18 18 6
      vertex 18 18 0
    endloop
  endfacet
  facet normal 1 -0 0
    outer loop
      vertex 18 22.8292 6
      vertex 18 23 0
      vertex 18 23 6
    endloop
  endfacet
  facet normal 1 0 0
    outer loop
      vertex 18 23 0
      vertex 18 22.8292 6
      vertex 18 22.8292 0
    endloop
  endfacet
  facet normal 0 1 -0
    outer loop
      vertex 14.3048 23 0
      vertex 13 23 6
      vertex 14.3048 23 6
    endloop
  endfacet
  facet normal 0 1 0
    outer loop
      vertex 13 23 6
      vertex 14.3048 23 0
      vertex 13 23 0
    endloop
  endfacet
  facet normal 0 1 -0
    outer loop
      vertex 18 23 0
      vertex 17.7042 23 6
      vertex 18 23 6
    endloop
  endfacet
  facet normal 0 1 0
    outer loop
      vertex 17.7042 23 6
      vertex 18 23 0
      vertex 17.7042 23 0
    endloop
  endfacet
  facet normal 0.309048 0.951047 -0
    outer loop
      vertex 16.309 20.0489 0
      vertex 15.191 20.4122 6
      vertex 16.309 20.0489 6
    endloop
  endfacet
  facet normal 0.309048 0.951047 0
    outer loop
      vertex 15.191 20.4122 6
      vertex 16.309 20.0489 0
      vertex 15.191 20.4122 0
    endloop
  endfacet
  facet normal 0.309048 -0.951047 0
    outer loop
      vertex 15.191 21.5878 0
      vertex 16.309 21.9511 6
      vertex 15.191 21.5878 6
    endloop
  endfacet
  facet normal 0.309048 -0.951047 0
    outer loop
      vertex 16.309 21.9511 6
      vertex 15.191 21.5878 0
      vertex 16.309 21.9511 0
    endloop
  endfacet
  facet normal -0.809023 -0.587777 0
    outer loop
      vertex 17 21 0
      vertex 16.309 21.9511 6
      vertex 16.309 21.9511 0
    endloop
  endfacet
  facet normal -0.809023 -0.587777 0
    outer loop
      vertex 16.309 21.9511 6
      vertex 17 21 0
      vertex 17 21 6
    endloop
  endfacet
  facet normal 1 -0 0
    outer loop
      vertex 15.191 20.4122 6
      vertex 15.191 21.5878 0
      vertex 15.191 21.5878 6
    endloop
  endfacet
  facet normal 1 0 0
    outer loop
      vertex 15.191 21.5878 0
      vertex 15.191 20.4122 6
      vertex 15.191 20.4122 0
    endloop
  endfacet
  facet normal -0.809023 0.587777 0
    outer loop
      vertex 16.309 20.0489 0
      vertex 17 21 6
      vertex 17 21 0
    endloop
  endfacet
  facet normal -0.809023 0.587777 0
    outer loop
      vertex 17 21 6
      vertex 16.309 20.0489 0
      vertex 16.309 20.0489 6
    endloop
  endfacet
  facet normal -0.866036 0.499981 0
    outer loop
      vertex 43.2918 21.4775 0
      vertex 44 22.7042 6
      vertex 44 22.7042 0
    endloop
  endfacet
  facet normal -0.866036 0.499981 0
    outer loop
      vertex 44 22.7042 6
      vertex 43.2918 21.4775 0
      vertex 43.2918 21.4775 6
    endloop
  endfacet
  facet normal -0.866186 0.499722 0
    outer loop
      vertex 44.1708 23 0
      vertex 44.2323 23.1066 6
      vertex 44.2323 23.1066 0
    endloop
  endfacet
  facet normal -0.866186 0.499722 0
    outer loop
      vertex 44.2323 23.1066 6
      vertex 44.1708 23 0
      vertex 44.1708 23 6
    endloop
  endfacet
  facet normal -0.342025 0.939691 0
    outer loop
      vertex 46 23.75 0
      vertex 44.2323 23.1066 6
      vertex 46 23.75 6
    endloop
  endfacet
  facet normal -0.342025 0.939691 0
    outer loop
      vertex 44.2323 23.1066 6
      vertex 46 23.75 0
      vertex 44.2323 23.1066 0
    endloop
  endfacet
  facet normal -0.984812 -0.173625 0
    outer loop
      vertex 43.6184 19.625 0
      vertex 43.2918 21.4775 6
      vertex 43.2918 21.4775 0
    endloop
  endfacet
  facet normal -0.984812 -0.173625 0
    outer loop
      vertex 43.2918 21.4775 6
      vertex 43.6184 19.625 0
      vertex 43.6184 19.625 6
    endloop
  endfacet
  facet normal -0.642787 -0.766045 0
    outer loop
      vertex 43.6184 19.625 0
      vertex 44 19.3048 6
      vertex 43.6184 19.625 6
    endloop
  endfacet
  facet normal -0.642787 -0.766045 -0
    outer loop
      vertex 44 19.3048 6
      vertex 43.6184 19.625 0
      vertex 44 19.3048 0
    endloop
  endfacet
  facet normal 0.342025 0.939691 -0
    outer loop
      vertex 47.7677 23.1066 0
      vertex 46 23.75 6
      vertex 47.7677 23.1066 6
    endloop
  endfacet
  facet normal 0.342025 0.939691 0
    outer loop
      vertex 46 23.75 6
      vertex 47.7677 23.1066 0
      vertex 46 23.75 0
    endloop
  endfacet
  facet normal 0.866186 0.499722 0
    outer loop
      vertex 47.8292 23 6
      vertex 47.7677 23.1066 0
      vertex 47.7677 23.1066 6
    endloop
  endfacet
  facet normal 0.866186 0.499722 0
    outer loop
      vertex 47.7677 23.1066 0
      vertex 47.8292 23 6
      vertex 47.8292 23 0
    endloop
  endfacet
  facet normal 0 1 -0
    outer loop
      vertex 49 23 0
      vertex 47.8292 23 6
      vertex 49 23 6
    endloop
  endfacet
  facet normal 0 1 0
    outer loop
      vertex 47.8292 23 6
      vertex 49 23 0
      vertex 47.8292 23 0
    endloop
  endfacet
  facet normal 0 1 -0
    outer loop
      vertex 44.1708 23 0
      vertex 44 23 6
      vertex 44.1708 23 6
    endloop
  endfacet
  facet normal 0 1 0
    outer loop
      vertex 44 23 6
      vertex 44.1708 23 0
      vertex 44 23 0
    endloop
  endfacet
  facet normal -1 0 0
    outer loop
      vertex 44 18 0
      vertex 44 19.3048 6
      vertex 44 19.3048 0
    endloop
  endfacet
  facet normal -1 -0 0
    outer loop
      vertex 44 19.3048 6
      vertex 44 18 0
      vertex 44 18 6
    endloop
  endfacet
  facet normal -1 0 0
    outer loop
      vertex 44 22.7042 0
      vertex 44 23 6
      vertex 44 23 0
    endloop
  endfacet
  facet normal -1 -0 0
    outer loop
      vertex 44 23 6
      vertex 44 22.7042 0
      vertex 44 22.7042 6
    endloop
  endfacet
  facet normal -0.951047 0.309048 0
    outer loop
      vertex 46.5878 20.191 0
      vertex 46.9511 21.309 6
      vertex 46.9511 21.309 0
    endloop
  endfacet
  facet normal -0.951047 0.309048 0
    outer loop
      vertex 46.9511 21.309 6
      vertex 46.5878 20.191 0
      vertex 46.5878 20.191 6
    endloop
  endfacet
  facet normal 0.951047 0.309048 0
    outer loop
      vertex 45.4122 20.191 6
      vertex 45.0489 21.309 0
      vertex 45.0489 21.309 6
    endloop
  endfacet
  facet normal 0.951047 0.309048 0
    outer loop
      vertex 45.0489 21.309 0
      vertex 45.4122 20.191 6
      vertex 45.4122 20.191 0
    endloop
  endfacet
  facet normal 0.587777 -0.809023 0
    outer loop
      vertex 45.0489 21.309 0
      vertex 46 22 6
      vertex 45.0489 21.309 6
    endloop
  endfacet
  facet normal 0.587777 -0.809023 0
    outer loop
      vertex 46 22 6
      vertex 45.0489 21.309 0
      vertex 46 22 0
    endloop
  endfacet
  facet normal 0 1 -0
    outer loop
      vertex 46.5878 20.191 0
      vertex 45.4122 20.191 6
      vertex 46.5878 20.191 6
    endloop
  endfacet
  facet normal 0 1 0
    outer loop
      vertex 45.4122 20.191 6
      vertex 46.5878 20.191 0
      vertex 45.4122 20.191 0
    endloop
  endfacet
  facet normal -0.587777 -0.809023 0
    outer loop
      vertex 46 22 0
      vertex 46.9511 21.309 6
      vertex 46 22 6
    endloop
  endfacet
  facet normal -0.587777 -0.809023 -0
    outer loop
      vertex 46.9511 21.309 6
      vertex 46 22 0
      vertex 46.9511 21.309 0
    endloop
  endfacet
  facet normal -0.499981 -0.866036 0
    outer loop
      vertex 44.2958 49 0
      vertex 45.5225 48.2918 6
      vertex 44.2958 49 6
    endloop
  endfacet
  facet normal -0.499981 -0.866036 -0
    outer loop
      vertex 45.5225 48.2918 6
      vertex 44.2958 49 0
      vertex 45.5225 48.2918 0
    endloop
  endfacet
  facet normal -0.499722 -0.866186 0
    outer loop
      vertex 43.8934 49.2323 0
      vertex 44 49.1708 6
      vertex 43.8934 49.2323 6
    endloop
  endfacet
  facet normal -0.499722 -0.866186 -0
    outer loop
      vertex 44 49.1708 6
      vertex 43.8934 49.2323 0
      vertex 44 49.1708 0
    endloop
  endfacet
  facet normal -0.939691 -0.342025 0
    outer loop
      vertex 43.8934 49.2323 0
      vertex 43.25 51 6
      vertex 43.25 51 0
    endloop
  endfacet
  facet normal -0.939691 -0.342025 0
    outer loop
      vertex 43.25 51 6
      vertex 43.8934 49.2323 0
      vertex 43.8934 49.2323 6
    endloop
  endfacet
  facet normal 0.173625 -0.984812 0
    outer loop
      vertex 45.5225 48.2918 0
      vertex 47.375 48.6184 6
      vertex 45.5225 48.2918 6
    endloop
  endfacet
  facet normal 0.173625 -0.984812 0
    outer loop
      vertex 47.375 48.6184 6
      vertex 45.5225 48.2918 0
      vertex 47.375 48.6184 0
    endloop
  endfacet
  facet normal 0.766045 -0.642787 0
    outer loop
      vertex 47.375 48.6184 6
      vertex 47.6952 49 0
      vertex 47.6952 49 6
    endloop
  endfacet
  facet normal 0.766045 -0.642787 0
    outer loop
      vertex 47.6952 49 0
      vertex 47.375 48.6184 6
      vertex 47.375 48.6184 0
    endloop
  endfacet
  facet normal -0.939691 0.342025 0
    outer loop
      vertex 43.25 51 0
      vertex 43.8934 52.7677 6
      vertex 43.8934 52.7677 0
    endloop
  endfacet
  facet normal -0.939691 0.342025 0
    outer loop
      vertex 43.8934 52.7677 6
      vertex 43.25 51 0
      vertex 43.25 51 6
    endloop
  endfacet
  facet normal -0.499722 0.866186 0
    outer loop
      vertex 44 52.8292 0
      vertex 43.8934 52.7677 6
      vertex 44 52.8292 6
    endloop
  endfacet
  facet normal -0.499722 0.866186 0
    outer loop
      vertex 43.8934 52.7677 6
      vertex 44 52.8292 0
      vertex 43.8934 52.7677 0
    endloop
  endfacet
  facet normal -1 0 0
    outer loop
      vertex 44 52.8292 0
      vertex 44 54 2.5
      vertex 44 54 0
    endloop
  endfacet
  facet normal -1 0 0
    outer loop
      vertex 44 52.8292 6
      vertex 44 54 2.5
      vertex 44 52.8292 0
    endloop
  endfacet
  facet normal -1 0 0
    outer loop
      vertex 44 54 2.5
      vertex 44 52.8292 6
      vertex 44 54 6
    endloop
  endfacet
  facet normal -1 0 0
    outer loop
      vertex 44 49 0
      vertex 44 49.1708 6
      vertex 44 49.1708 0
    endloop
  endfacet
  facet normal -1 -0 0
    outer loop
      vertex 44 49.1708 6
      vertex 44 49 0
      vertex 44 49 6
    endloop
  endfacet
  facet normal 0 -1 0
    outer loop
      vertex 47.6952 49 0
      vertex 49 49 6
      vertex 47.6952 49 6
    endloop
  endfacet
  facet normal 0 -1 -0
    outer loop
      vertex 49 49 6
      vertex 47.6952 49 0
      vertex 49 49 0
    endloop
  endfacet
  facet normal 0 -1 0
    outer loop
      vertex 44 49 0
      vertex 44.2958 49 6
      vertex 44 49 6
    endloop
  endfacet
  facet normal 0 -1 -0
    outer loop
      vertex 44.2958 49 6
      vertex 44 49 0
      vertex 44.2958 49 0
    endloop
  endfacet
  facet normal -0.309048 -0.951047 0
    outer loop
      vertex 45.691 51.9511 0
      vertex 46.809 51.5878 6
      vertex 45.691 51.9511 6
    endloop
  endfacet
  facet normal -0.309048 -0.951047 -0
    outer loop
      vertex 46.809 51.5878 6
      vertex 45.691 51.9511 0
      vertex 46.809 51.5878 0
    endloop
  endfacet
  facet normal -0.309048 0.951047 0
    outer loop
      vertex 46.809 50.4122 0
      vertex 45.691 50.0489 6
      vertex 46.809 50.4122 6
    endloop
  endfacet
  facet normal -0.309048 0.951047 0
    outer loop
      vertex 45.691 50.0489 6
      vertex 46.809 50.4122 0
      vertex 45.691 50.0489 0
    endloop
  endfacet
  facet normal 0.809023 0.587777 0
    outer loop
      vertex 45.691 50.0489 6
      vertex 45 51 0
      vertex 45 51 6
    endloop
  endfacet
  facet normal 0.809023 0.587777 0
    outer loop
      vertex 45 51 0
      vertex 45.691 50.0489 6
      vertex 45.691 50.0489 0
    endloop
  endfacet
  facet normal -1 0 0
    outer loop
      vertex 46.809 50.4122 0
      vertex 46.809 51.5878 6
      vertex 46.809 51.5878 0
    endloop
  endfacet
  facet normal -1 -0 0
    outer loop
      vertex 46.809 51.5878 6
      vertex 46.809 50.4122 0
      vertex 46.809 50.4122 6
    endloop
  endfacet
  facet normal 0.809023 -0.587777 0
    outer loop
      vertex 45 51 6
      vertex 45.691 51.9511 0
      vertex 45.691 51.9511 6
    endloop
  endfacet
  facet normal 0.809023 -0.587777 0
    outer loop
      vertex 45.691 51.9511 0
      vertex 45 51 6
      vertex 45 51 0
    endloop
  endfacet
  facet normal 0.866036 -0.499981 0
    outer loop
      vertex 18 49.2958 6
      vertex 18.7082 50.5225 0
      vertex 18.7082 50.5225 6
    endloop
  endfacet
  facet normal 0.866036 -0.499981 0
    outer loop
      vertex 18.7082 50.5225 0
      vertex 18 49.2958 6
      vertex 18 49.2958 0
    endloop
  endfacet
  facet normal 0.866186 -0.499722 0
    outer loop
      vertex 17.7677 48.8934 6
      vertex 17.8292 49 0
      vertex 17.8292 49 6
    endloop
  endfacet
  facet normal 0.866186 -0.499722 0
    outer loop
      vertex 17.8292 49 0
      vertex 17.7677 48.8934 6
      vertex 17.7677 48.8934 0
    endloop
  endfacet
  facet normal 0.342025 -0.939691 0
    outer loop
      vertex 16 48.25 0
      vertex 17.7677 48.8934 6
      vertex 16 48.25 6
    endloop
  endfacet
  facet normal 0.342025 -0.939691 0
    outer loop
      vertex 17.7677 48.8934 6
      vertex 16 48.25 0
      vertex 17.7677 48.8934 0
    endloop
  endfacet
  facet normal 0.984812 0.173625 0
    outer loop
      vertex 18.7082 50.5225 6
      vertex 18.3816 52.375 0
      vertex 18.3816 52.375 6
    endloop
  endfacet
  facet normal 0.984812 0.173625 0
    outer loop
      vertex 18.3816 52.375 0
      vertex 18.7082 50.5225 6
      vertex 18.7082 50.5225 0
    endloop
  endfacet
  facet normal 0.642787 0.766045 -0
    outer loop
      vertex 18.3816 52.375 0
      vertex 18 52.6952 6
      vertex 18.3816 52.375 6
    endloop
  endfacet
  facet normal 0.642787 0.766045 0
    outer loop
      vertex 18 52.6952 6
      vertex 18.3816 52.375 0
      vertex 18 52.6952 0
    endloop
  endfacet
  facet normal -0.342025 -0.939691 0
    outer loop
      vertex 14.2323 48.8934 0
      vertex 16 48.25 6
      vertex 14.2323 48.8934 6
    endloop
  endfacet
  facet normal -0.342025 -0.939691 -0
    outer loop
      vertex 16 48.25 6
      vertex 14.2323 48.8934 0
      vertex 16 48.25 0
    endloop
  endfacet
  facet normal -0.866186 -0.499722 0
    outer loop
      vertex 14.2323 48.8934 0
      vertex 14.1708 49 6
      vertex 14.1708 49 0
    endloop
  endfacet
  facet normal -0.866186 -0.499722 0
    outer loop
      vertex 14.1708 49 6
      vertex 14.2323 48.8934 0
      vertex 14.2323 48.8934 6
    endloop
  endfacet
  facet normal 0 -1 0
    outer loop
      vertex 13 49 0
      vertex 14.1708 49 6
      vertex 13 49 6
    endloop
  endfacet
  facet normal 0 -1 -0
    outer loop
      vertex 14.1708 49 6
      vertex 13 49 0
      vertex 14.1708 49 0
    endloop
  endfacet
  facet normal 0 -1 0
    outer loop
      vertex 17.8292 49 0
      vertex 18 49 6
      vertex 17.8292 49 6
    endloop
  endfacet
  facet normal 0 -1 -0
    outer loop
      vertex 18 49 6
      vertex 17.8292 49 0
      vertex 18 49 0
    endloop
  endfacet
  facet normal 1 -0 0
    outer loop
      vertex 18 52.6952 6
      vertex 18 54 2.5
      vertex 18 54 6
    endloop
  endfacet
  facet normal 1 0 0
    outer loop
      vertex 18 52.6952 0
      vertex 18 54 2.5
      vertex 18 52.6952 6
    endloop
  endfacet
  facet normal 1 0 0
    outer loop
      vertex 18 54 2.5
      vertex 18 52.6952 0
      vertex 18 54 0
    endloop
  endfacet
  facet normal 1 -0 0
    outer loop
      vertex 18 49 6
      vertex 18 49.2958 0
      vertex 18 49.2958 6
    endloop
  endfacet
  facet normal 1 0 0
    outer loop
      vertex 18 49.2958 0
      vertex 18 49 6
      vertex 18 49 0
    endloop
  endfacet
  facet normal 0.951047 -0.309048 0
    outer loop
      vertex 15.0489 50.691 6
      vertex 15.4122 51.809 0
      vertex 15.4122 51.809 6
    endloop
  endfacet
  facet normal 0.951047 -0.309048 0
    outer loop
      vertex 15.4122 51.809 0
      vertex 15.0489 50.691 6
      vertex 15.0489 50.691 0
    endloop
  endfacet
  facet normal -0.951047 -0.309048 0
    outer loop
      vertex 16.9511 50.691 0
      vertex 16.5878 51.809 6
      vertex 16.5878 51.809 0
    endloop
  endfacet
  facet normal -0.951047 -0.309048 0
    outer loop
      vertex 16.5878 51.809 6
      vertex 16.9511 50.691 0
      vertex 16.9511 50.691 6
    endloop
  endfacet
  facet normal -0.587777 0.809023 0
    outer loop
      vertex 16.9511 50.691 0
      vertex 16 50 6
      vertex 16.9511 50.691 6
    endloop
  endfacet
  facet normal -0.587777 0.809023 0
    outer loop
      vertex 16 50 6
      vertex 16.9511 50.691 0
      vertex 16 50 0
    endloop
  endfacet
  facet normal 0 -1 0
    outer loop
      vertex 15.4122 51.809 0
      vertex 16.5878 51.809 6
      vertex 15.4122 51.809 6
    endloop
  endfacet
  facet normal 0 -1 -0
    outer loop
      vertex 16.5878 51.809 6
      vertex 15.4122 51.809 0
      vertex 16.5878 51.809 0
    endloop
  endfacet
  facet normal 0.587777 0.809023 -0
    outer loop
      vertex 16 50 0
      vertex 15.0489 50.691 6
      vertex 16 50 6
    endloop
  endfacet
  facet normal 0.587777 0.809023 0
    outer loop
      vertex 15.0489 50.691 6
      vertex 16 50 0
      vertex 15.0489 50.691 0
    endloop
  endfacet
  facet normal -1 0 0
    outer loop
      vertex 59.5 0.214466 2.5
      vertex 59.5 64.5 67
      vertex 59.5 64.5 66.7855
    endloop
  endfacet
  facet normal -1 0 0
    outer loop
      vertex 59.5 64.5 67
      vertex 59.5 0.214466 2.5
      vertex 59.5 0 2.5
    endloop
  endfacet
  facet normal -1 0 -0
    outer loop
      vertex 59.5 64.5 63.25
      vertex 59.5 64.5 2.5
      vertex 59.5 3.75 2.5
    endloop
  endfacet
  facet normal 1 0 0
    outer loop
      vertex 2.5 64.5 67
      vertex 2.5 0.214466 2.5
      vertex 2.5 64.5 66.7855
    endloop
  endfacet
  facet normal 1 0 -0
    outer loop
      vertex 2.5 0.214466 2.5
      vertex 2.5 64.5 67
      vertex 2.5 0 2.5
    endloop
  endfacet
  facet normal 1 0 -0
    outer loop
      vertex 2.5 64.5 2.5
      vertex 2.5 64.5 63.25
      vertex 2.5 3.75 2.5
    endloop
  endfacet
  facet normal 0 -1 0
    outer loop
      vertex 2.5 64.5 2.5
      vertex 10 64.5 63.25
      vertex 2.5 64.5 63.25
    endloop
  endfacet
  facet normal 0 -1 -0
    outer loop
      vertex 10 64.5 63.25
      vertex 2.5 64.5 2.5
      vertex 52 64.5 63.25
    endloop
  endfacet
  facet normal 0 -1 0
    outer loop
      vertex 59.5 64.5 2.5
      vertex 52 64.5 63.25
      vertex 2.5 64.5 2.5
    endloop
  endfacet
  facet normal 0 -1 0
    outer loop
      vertex 52 64.5 63.25
      vertex 59.5 64.5 2.5
      vertex 59.5 64.5 63.25
    endloop
  endfacet
  facet normal 0 -1 0
    outer loop
      vertex 10 64.5 63.25
      vertex 52 64.5 66.7855
      vertex 10 64.5 66.7855
    endloop
  endfacet
  facet normal 0 -1 -0
    outer loop
      vertex 52 64.5 66.7855
      vertex 10 64.5 63.25
      vertex 52 64.5 63.25
    endloop
  endfacet
  facet normal 0 -1 0
    outer loop
      vertex 10 64.5 66.7855
      vertex 2.5 64.5 67
      vertex 2.5 64.5 66.7855
    endloop
  endfacet
  facet normal 0 -1 0
    outer loop
      vertex 2.5 64.5 67
      vertex 10 64.5 66.7855
      vertex 59.5 64.5 67
    endloop
  endfacet
  facet normal 0 -1 0
    outer loop
      vertex 52 64.5 66.7855
      vertex 59.5 64.5 67
      vertex 10 64.5 66.7855
    endloop
  endfacet
  facet normal 0 -1 -0
    outer loop
      vertex 59.5 64.5 67
      vertex 52 64.5 66.7855
      vertex 59.5 64.5 66.7855
    endloop
  endfacet
  facet normal 0 -0.707107 0.707107
    outer loop
      vertex 2.5 64.5 67
      vertex 26 67 69.5
      vertex 0 67 69.5
    endloop
  endfacet
  facet normal 0 -0.707107 0.707107
    outer loop
      vertex 26 67 69.5
      vertex 2.5 64.5 67
      vertex 36 67 69.5
    endloop
  endfacet
  facet normal 0 -0.707107 0.707107
    outer loop
      vertex 59.5 64.5 67
      vertex 36 67 69.5
      vertex 2.5 64.5 67
    endloop
  endfacet
  facet normal 0 -0.707107 0.707107
    outer loop
      vertex 0 0 2.5
      vertex 2.5 64.5 67
      vertex 0 67 69.5
    endloop
  endfacet
  facet normal 0 -0.707107 0.707107
    outer loop
      vertex 2.5 64.5 67
      vertex 0 0 2.5
      vertex 2.5 0 2.5
    endloop
  endfacet
  facet normal 0 -0.707107 0.707107
    outer loop
      vertex 36 67 69.5
      vertex 59.5 64.5 67
      vertex 62 67 69.5
    endloop
  endfacet
  facet normal 0 -0.707107 0.707107
    outer loop
      vertex 62 0 2.5
      vertex 59.5 64.5 67
      vertex 59.5 0 2.5
    endloop
  endfacet
  facet normal 0 -0.707107 0.707107
    outer loop
      vertex 59.5 64.5 67
      vertex 62 0 2.5
      vertex 62 67 69.5
    endloop
  endfacet
  facet normal -0.986394 0 0.164399
    outer loop
      vertex 18.5 69.5 39.5
      vertex 23.5 72 69.5
      vertex 18.5 72 39.5
    endloop
  endfacet
  facet normal -0.986394 0 0.164399
    outer loop
      vertex 23.5 72 69.5
      vertex 18.5 69.5 39.5
      vertex 23.5 69.5 69.5
    endloop
  endfacet
  facet normal 0 1 0
    outer loop
      vertex 43.5 72 39.5
      vertex 23.5 72 69.5
      vertex 38.5 72 69.5
    endloop
  endfacet
  facet normal 0 1 0
    outer loop
      vertex 23.5 72 69.5
      vertex 43.5 72 39.5
      vertex 18.5 72 39.5
    endloop
  endfacet
  facet normal 0 -1 0
    outer loop
      vertex 41 69.5 39.5
      vertex 38.5 69.5 69.5
      vertex 36 69.5 69.5
    endloop
  endfacet
  facet normal 0 -1 0
    outer loop
      vertex 38.5 69.5 69.5
      vertex 41 69.5 39.5
      vertex 43.5 69.5 39.5
    endloop
  endfacet
  facet normal 0 -1 0
    outer loop
      vertex 21 69.5 39.5
      vertex 23.5 69.5 69.5
      vertex 18.5 69.5 39.5
    endloop
  endfacet
  facet normal 0 -1 -0
    outer loop
      vertex 23.5 69.5 69.5
      vertex 21 69.5 39.5
      vertex 26 69.5 69.5
    endloop
  endfacet
  facet normal 0 0 1
    outer loop
      vertex 38.5 72 69.5
      vertex 36 69.5 69.5
      vertex 38.5 69.5 69.5
    endloop
  endfacet
  facet normal 0 0 1
    outer loop
      vertex 36 69.5 69.5
      vertex 26 69.5 69.5
      vertex 36 67 69.5
    endloop
  endfacet
  facet normal 0 0 1
    outer loop
      vertex 38.5 72 69.5
      vertex 26 69.5 69.5
      vertex 36 69.5 69.5
    endloop
  endfacet
  facet normal -0 0 1
    outer loop
      vertex 23.5 72 69.5
      vertex 26 69.5 69.5
      vertex 38.5 72 69.5
    endloop
  endfacet
  facet normal 0 0 1
    outer loop
      vertex 26 69.5 69.5
      vertex 23.5 72 69.5
      vertex 23.5 69.5 69.5
    endloop
  endfacet
  facet normal 0 0 1
    outer loop
      vertex 36 67 69.5
      vertex 26 69.5 69.5
      vertex 26 67 69.5
    endloop
  endfacet
  facet normal 0 0 -1
    outer loop
      vertex 41 67 39.5
      vertex 21 67 39.5
      vertex 41 69.5 39.5
    endloop
  endfacet
  facet normal 0 0 -1
    outer loop
      vertex 41 69.5 39.5
      vertex 43.5 72 39.5
      vertex 43.5 69.5 39.5
    endloop
  endfacet
  facet normal 0 0 -1
    outer loop
      vertex 21 69.5 39.5
      vertex 41 69.5 39.5
      vertex 21 67 39.5
    endloop
  endfacet
  facet normal 0 0 -1
    outer loop
      vertex 41 69.5 39.5
      vertex 21 69.5 39.5
      vertex 43.5 72 39.5
    endloop
  endfacet
  facet normal 0 0 -1
    outer loop
      vertex 18.5 72 39.5
      vertex 21 69.5 39.5
      vertex 18.5 69.5 39.5
    endloop
  endfacet
  facet normal 0 0 -1
    outer loop
      vertex 21 69.5 39.5
      vertex 18.5 72 39.5
      vertex 43.5 72 39.5
    endloop
  endfacet
  facet normal 0.986394 -0 0.164399
    outer loop
      vertex 38.5 69.5 69.5
      vertex 43.5 72 39.5
      vertex 38.5 72 69.5
    endloop
  endfacet
  facet normal 0.986394 0 0.164399
    outer loop
      vertex 43.5 72 39.5
      vertex 38.5 69.5 69.5
      vertex 43.5 69.5 39.5
    endloop
  endfacet
  facet normal -0.986394 0 0.164399
    outer loop
      vertex 21 67 39.5
      vertex 26 69.5 69.5
      vertex 21 69.5 39.5
    endloop
  endfacet
  facet normal -0.986394 0 0.164399
    outer loop
      vertex 26 69.5 69.5
      vertex 21 67 39.5
      vertex 26 67 69.5
    endloop
  endfacet
  facet normal 0.986394 -0 0.164399
    outer loop
      vertex 36 67 69.5
      vertex 41 69.5 39.5
      vertex 36 69.5 69.5
    endloop
  endfacet
  facet normal 0.986394 0 0.164399
    outer loop
      vertex 41 69.5 39.5
      vertex 36 67 69.5
      vertex 41 67 39.5
    endloop
  endfacet
  facet normal 0 -0.986394 0.164399
    outer loop
      vertex -5 32.5 2.5
      vertex -2.5 37.5 32.5
      vertex -5 37.5 32.5
    endloop
  endfacet
  facet normal 0 -0.986394 0.164399
    outer loop
      vertex -2.5 37.5 32.5
      vertex -5 32.5 2.5
      vertex -2.5 32.5 2.5
    endloop
  endfacet
  facet normal -1 0 0
    outer loop
      vertex -5 57.5 2.5
      vertex -5 37.5 32.5
      vertex -5 52.5 32.5
    endloop
  endfacet
  facet normal -1 0 -0
    outer loop
      vertex -5 37.5 32.5
      vertex -5 57.5 2.5
      vertex -5 32.5 2.5
    endloop
  endfacet
  facet normal 1 0 0
    outer loop
      vertex -2.5 52.5 32.5
      vertex -2.5 55 2.5
      vertex -2.5 57.5 2.5
    endloop
  endfacet
  facet normal 1 0 0
    outer loop
      vertex -2.5 55 2.5
      vertex -2.5 52.5 32.5
      vertex -2.5 50 32.5
    endloop
  endfacet
  facet normal 1 -0 0
    outer loop
      vertex -2.5 37.5 32.5
      vertex -2.5 35 2.5
      vertex -2.5 40 32.5
    endloop
  endfacet
  facet normal 1 0 -0
    outer loop
      vertex -2.5 35 2.5
      vertex -2.5 37.5 32.5
      vertex -2.5 32.5 2.5
    endloop
  endfacet
  facet normal -0 0 1
    outer loop
      vertex -5 52.5 32.5
      vertex -2.5 50 32.5
      vertex -2.5 52.5 32.5
    endloop
  endfacet
  facet normal 0 0 1
    outer loop
      vertex -2.5 50 32.5
      vertex -5 52.5 32.5
      vertex -2.5 40 32.5
    endloop
  endfacet
  facet normal 0 0 1
    outer loop
      vertex -5 37.5 32.5
      vertex -2.5 40 32.5
      vertex -5 52.5 32.5
    endloop
  endfacet
  facet normal 0 0 1
    outer loop
      vertex -2.5 40 32.5
      vertex -5 37.5 32.5
      vertex -2.5 37.5 32.5
    endloop
  endfacet
  facet normal -0 0 1
    outer loop
      vertex -2.5 50 32.5
      vertex 0 40 32.5
      vertex 0 50 32.5
    endloop
  endfacet
  facet normal 0 0 1
    outer loop
      vertex 0 40 32.5
      vertex -2.5 50 32.5
      vertex -2.5 40 32.5
    endloop
  endfacet
  facet normal 0 0 -1
    outer loop
      vertex -5 32.5 2.5
      vertex -2.5 35 2.5
      vertex -2.5 32.5 2.5
    endloop
  endfacet
  facet normal -0 0 -1
    outer loop
      vertex -2.5 35 2.5
      vertex -5 32.5 2.5
      vertex -2.5 55 2.5
    endloop
  endfacet
  facet normal 0 0 -1
    outer loop
      vertex -5 57.5 2.5
      vertex -2.5 55 2.5
      vertex -5 32.5 2.5
    endloop
  endfacet
  facet normal 0 0 -1
    outer loop
      vertex -2.5 55 2.5
      vertex -5 57.5 2.5
      vertex -2.5 57.5 2.5
    endloop
  endfacet
  facet normal 0 0 -1
    outer loop
      vertex -2.5 35 2.5
      vertex 0 55 2.5
      vertex 0 35 2.5
    endloop
  endfacet
  facet normal -0 0 -1
    outer loop
      vertex 0 55 2.5
      vertex -2.5 35 2.5
      vertex -2.5 55 2.5
    endloop
  endfacet
  facet normal 0 0.986394 0.164399
    outer loop
      vertex -2.5 57.5 2.5
      vertex -5 52.5 32.5
      vertex -2.5 52.5 32.5
    endloop
  endfacet
  facet normal 0 0.986394 0.164399
    outer loop
      vertex -5 52.5 32.5
      vertex -2.5 57.5 2.5
      vertex -5 57.5 2.5
    endloop
  endfacet
  facet normal 0 -0.986394 0.164399
    outer loop
      vertex -2.5 35 2.5
      vertex 0 40 32.5
      vertex -2.5 40 32.5
    endloop
  endfacet
  facet normal 0 -0.986394 0.164399
    outer loop
      vertex 0 40 32.5
      vertex -2.5 35 2.5
      vertex 0 35 2.5
    endloop
  endfacet
  facet normal 0 0.986394 0.164399
    outer loop
      vertex 0 55 2.5
      vertex -2.5 50 32.5
      vertex 0 50 32.5
    endloop
  endfacet
  facet normal 0 0.986394 0.164399
    outer loop
      vertex -2.5 50 32.5
      vertex 0 55 2.5
      vertex -2.5 55 2.5
    endloop
  endfacet
  facet normal 0 0.986394 0.164399
    outer loop
      vertex 67 57.5 2.5
      vertex 64.5 52.5 32.5
      vertex 67 52.5 32.5
    endloop
  endfacet
  facet normal 0 0.986394 0.164399
    outer loop
      vertex 64.5 52.5 32.5
      vertex 67 57.5 2.5
      vertex 64.5 57.5 2.5
    endloop
  endfacet
  facet normal 1 -0 0
    outer loop
      vertex 67 37.5 32.5
      vertex 67 57.5 2.5
      vertex 67 52.5 32.5
    endloop
  endfacet
  facet normal 1 0 0
    outer loop
      vertex 67 57.5 2.5
      vertex 67 37.5 32.5
      vertex 67 32.5 2.5
    endloop
  endfacet
  facet normal -1 0 0
    outer loop
      vertex 64.5 35 2.5
      vertex 64.5 37.5 32.5
      vertex 64.5 40 32.5
    endloop
  endfacet
  facet normal -1 0 0
    outer loop
      vertex 64.5 37.5 32.5
      vertex 64.5 35 2.5
      vertex 64.5 32.5 2.5
    endloop
  endfacet
  facet normal -1 0 0
    outer loop
      vertex 64.5 55 2.5
      vertex 64.5 52.5 32.5
      vertex 64.5 57.5 2.5
    endloop
  endfacet
  facet normal -1 -0 -0
    outer loop
      vertex 64.5 52.5 32.5
      vertex 64.5 55 2.5
      vertex 64.5 50 32.5
    endloop
  endfacet
  facet normal -0 0 1
    outer loop
      vertex 62 50 32.5
      vertex 64.5 40 32.5
      vertex 64.5 50 32.5
    endloop
  endfacet
  facet normal 0 0 1
    outer loop
      vertex 64.5 40 32.5
      vertex 62 50 32.5
      vertex 62 40 32.5
    endloop
  endfacet
  facet normal 0 0 1
    outer loop
      vertex 64.5 50 32.5
      vertex 67 52.5 32.5
      vertex 64.5 52.5 32.5
    endloop
  endfacet
  facet normal 0 0 1
    outer loop
      vertex 67 52.5 32.5
      vertex 64.5 50 32.5
      vertex 67 37.5 32.5
    endloop
  endfacet
  facet normal -0 0 1
    outer loop
      vertex 64.5 40 32.5
      vertex 67 37.5 32.5
      vertex 64.5 50 32.5
    endloop
  endfacet
  facet normal 0 0 1
    outer loop
      vertex 67 37.5 32.5
      vertex 64.5 40 32.5
      vertex 64.5 37.5 32.5
    endloop
  endfacet
  facet normal 0 0 -1
    outer loop
      vertex 62 35 2.5
      vertex 64.5 55 2.5
      vertex 64.5 35 2.5
    endloop
  endfacet
  facet normal -0 0 -1
    outer loop
      vertex 64.5 55 2.5
      vertex 62 35 2.5
      vertex 62 55 2.5
    endloop
  endfacet
  facet normal 0 0 -1
    outer loop
      vertex 64.5 35 2.5
      vertex 67 32.5 2.5
      vertex 64.5 32.5 2.5
    endloop
  endfacet
  facet normal 0 0 -1
    outer loop
      vertex 67 32.5 2.5
      vertex 64.5 35 2.5
      vertex 67 57.5 2.5
    endloop
  endfacet
  facet normal 0 0 -1
    outer loop
      vertex 64.5 55 2.5
      vertex 67 57.5 2.5
      vertex 64.5 35 2.5
    endloop
  endfacet
  facet normal -0 0 -1
    outer loop
      vertex 67 57.5 2.5
      vertex 64.5 55 2.5
      vertex 64.5 57.5 2.5
    endloop
  endfacet
  facet normal 0 -0.986394 0.164399
    outer loop
      vertex 64.5 32.5 2.5
      vertex 67 37.5 32.5
      vertex 64.5 37.5 32.5
    endloop
  endfacet
  facet normal 0 -0.986394 0.164399
    outer loop
      vertex 67 37.5 32.5
      vertex 64.5 32.5 2.5
      vertex 67 32.5 2.5
    endloop
  endfacet
  facet normal 0 0.986394 0.164399
    outer loop
      vertex 64.5 55 2.5
      vertex 62 50 32.5
      vertex 64.5 50 32.5
    endloop
  endfacet
  facet normal 0 0.986394 0.164399
    outer loop
      vertex 62 50 32.5
      vertex 64.5 55 2.5
      vertex 62 55 2.5
    endloop
  endfacet
  facet normal 0 -0.986394 0.164399
    outer loop
      vertex 62 35 2.5
      vertex 64.5 40 32.5
      vertex 62 40 32.5
    endloop
  endfacet
  facet normal 0 -0.986394 0.164399
    outer loop
      vertex 64.5 40 32.5
      vertex 62 35 2.5
      vertex 64.5 35 2.5
    endloop
  endfacet
  facet normal 1 0 0
    outer loop
      vertex 10 0 2.28553
      vertex 10 -0.517767 1.76777
      vertex 10 0 1.25
    endloop
  endfacet
  facet normal 1 0 0
    outer loop
      vertex 10 64.5 66.7855
      vertex 10 3.75 2.5
      vertex 10 64.5 63.25
    endloop
  endfacet
  facet normal 1 0 -0
    outer loop
      vertex 10 3.75 2.5
      vertex 10 64.5 66.7855
      vertex 10 0.214466 2.5
    endloop
  endfacet
  facet normal 0 -0.707102 0.707112
    outer loop
      vertex 0 -0.517767 1.76777
      vertex 10 0 2.28553
      vertex 0 0 2.28553
    endloop
  endfacet
  facet normal 0 -0.707102 0.707112
    outer loop
      vertex 10 0 2.28553
      vertex 0 -0.517767 1.76777
      vertex 10 -0.517767 1.76777
    endloop
  endfacet
  facet normal 0 -0.707107 0.707107
    outer loop
      vertex 2.5 0.214466 2.5
      vertex 10 64.5 66.7855
      vertex 2.5 64.5 66.7855
    endloop
  endfacet
  facet normal 0 -0.707107 0.707107
    outer loop
      vertex 10 64.5 66.7855
      vertex 2.5 0.214466 2.5
      vertex 10 0.214466 2.5
    endloop
  endfacet
  facet normal 0 0.707107 -0.707107
    outer loop
      vertex 10 3.75 2.5
      vertex 2.5 64.5 63.25
      vertex 10 64.5 63.25
    endloop
  endfacet
  facet normal 0 0.707107 -0.707107
    outer loop
      vertex 2.5 64.5 63.25
      vertex 10 3.75 2.5
      vertex 2.5 3.75 2.5
    endloop
  endfacet
  facet normal 0 -0.707109 -0.707105
    outer loop
      vertex 0 0 1.25
      vertex 10 -0.517767 1.76777
      vertex 0 -0.517767 1.76777
    endloop
  endfacet
  facet normal 0 -0.707109 -0.707105
    outer loop
      vertex 10 -0.517767 1.76777
      vertex 0 0 1.25
      vertex 10 0 1.25
    endloop
  endfacet
  facet normal -1 0 0
    outer loop
      vertex 52 0 1.25
      vertex 52 -0.517767 1.76777
      vertex 52 0 2.28553
    endloop
  endfacet
  facet normal -1 0 0
    outer loop
      vertex 52 3.75 2.5
      vertex 52 64.5 66.7855
      vertex 52 64.5 63.25
    endloop
  endfacet
  facet normal -1 0 0
    outer loop
      vertex 52 64.5 66.7855
      vertex 52 3.75 2.5
      vertex 52 0.214466 2.5
    endloop
  endfacet
  facet normal 0 -0.707102 0.707112
    outer loop
      vertex 52 -0.517767 1.76777
      vertex 62 0 2.28553
      vertex 52 0 2.28553
    endloop
  endfacet
  facet normal 0 -0.707102 0.707112
    outer loop
      vertex 62 0 2.28553
      vertex 52 -0.517767 1.76777
      vertex 62 -0.517767 1.76777
    endloop
  endfacet
  facet normal 0 -0.707107 0.707107
    outer loop
      vertex 52 0.214466 2.5
      vertex 59.5 64.5 66.7855
      vertex 52 64.5 66.7855
    endloop
  endfacet
  facet normal 0 -0.707107 0.707107
    outer loop
      vertex 59.5 64.5 66.7855
      vertex 52 0.214466 2.5
      vertex 59.5 0.214466 2.5
    endloop
  endfacet
  facet normal 0 0.707107 -0.707107
    outer loop
      vertex 59.5 3.75 2.5
      vertex 52 64.5 63.25
      vertex 59.5 64.5 63.25
    endloop
  endfacet
  facet normal 0 0.707107 -0.707107
    outer loop
      vertex 52 64.5 63.25
      vertex 59.5 3.75 2.5
      vertex 52 3.75 2.5
    endloop
  endfacet
  facet normal 0 -0.707109 -0.707105
    outer loop
      vertex 52 0 1.25
      vertex 62 -0.517767 1.76777
      vertex 52 -0.517767 1.76777
    endloop
  endfacet
  facet normal 0 -0.707109 -0.707105
    outer loop
      vertex 62 -0.517767 1.76777
      vertex 52 0 1.25
      vertex 62 0 1.25
    endloop
  endfacet
endsolid OpenSCAD_Model
